<svg xmlns="http://www.w3.org/2000/svg" viewBox="0 0 782.02 214.68"><defs><style>.cls-1{fill:#6fb631;}.cls-2{fill:#c1da99;}.cls-3{fill:#fffffe;}</style></defs><g id="Calque_2" data-name="Calque 2"><g id="Layer_1" data-name="Layer 1"><path class="cls-1" d="M286,85.43q0-15.5,0-31c0-.92.06-1.83.14-2.74a2,2,0,0,1,2.26-2.05q14.86.06,29.74,0c2.36,0,2.4,1.46,2.4,3.17q0,26.49,0,53a81.9,81.9,0,0,0,.17,8.73,37.41,37.41,0,0,0,3.05,12.21c3.1,6.53,8.6,9.32,15.41,10.25,7.09,1,13.92.56,20.1-3.55,3.85-2.56,5.79-6.39,7.21-10.64,1.76-5.24,1.62-10.69,1.67-16.06.18-17.74.07-35.48.08-53.22,0-3.64.19-3.84,3.78-3.84h27c3.42,0,3.62.19,3.62,3.5,0,19.9.1,39.8,0,59.71-.06,10.79-2.23,21.14-7.83,30.54a43.33,43.33,0,0,1-19.92,17.64c-12,5.41-24.65,6.27-37.55,5.53a70.07,70.07,0,0,1-16.9-3c-11.53-3.59-20.77-10.23-26.9-20.85-5.44-9.4-7.23-19.73-7.48-30.37C285.8,103.42,286,94.42,286,85.43Z"/><path class="cls-1" d="M516.85,92.25c-4.83,0-9.66-.07-14.49,0a3.54,3.54,0,0,1-3.58-2.12c-3.86-7.53-10.21-11.66-18.29-13.58-11.12-2.64-20.73.32-28.28,8.54s-8.88,18.12-6.88,28.72a28.74,28.74,0,0,0,5.74,12.58c6.56,8.34,15.39,11.59,25.71,10.7a27,27,0,0,0,19.61-10.44,9.78,9.78,0,0,0,1.85-2.62c1-3,3.24-3.2,5.95-3.2,9.16,0,18.32.27,27.48-.13,2.27-.1,3,.8,2.42,3a53.93,53.93,0,0,1-12.58,23.08,59,59,0,0,1-20.64,14.62c-12.7,5.5-25.83,6.52-39.29,4.53a59.86,59.86,0,0,1-34-17.13,60,60,0,0,1-16.35-53.18c3.31-17.13,12.33-30.47,27.2-39.85,13.71-8.64,28.77-11,44.47-9.1,16.62,2,30.64,9.37,41.14,22.58a54.17,54.17,0,0,1,10,19.83c.68,2.54.22,3.09-2.49,3.11-4.91,0-9.83,0-14.75,0Z"/><path class="cls-2" d="M15.75,11c1.09-3,4.12-3.67,6.42-5.07C32,0,42.88-1.31,53.78,1.27A41.53,41.53,0,0,1,80.92,21.2a70.36,70.36,0,0,1,5.32,12.18c2.12-1.46,2.05-3.88,2.78-5.71,4.73-12,13.46-19.72,25.13-24.45C120.91.49,128,.11,135.16,1A40.34,40.34,0,0,1,154.87,8.9,42.78,42.78,0,0,1,168.11,25a41.32,41.32,0,0,1-2.77,41.86c-5.62,8.4-13.43,14-22.73,17.69-1.24.48-2.88-.13-4,1.58a43.9,43.9,0,0,1,15.14,6.46,42.51,42.51,0,0,1,15.8,18.87,42.94,42.94,0,0,1,2.6,25.36,43.86,43.86,0,0,1-12.31,22.74,43.36,43.36,0,0,1-19.72,11.32,37.06,37.06,0,0,1-16.94,1,51.05,51.05,0,0,1-17.94-6.71,42.49,42.49,0,0,1-15.93-18.49,11.64,11.64,0,0,1-1.52-3.92c-.06-.66-.12-1.37-1-1.47a1.4,1.4,0,0,0-1.66,1.17A26.63,26.63,0,0,1,80.75,152c-2.58,3.51-5.09,7.24-8.67,9.86-4.12,3-8.41,5.89-13.3,7.54-6.63,2.23-13.32,3.58-20.45,2.3-4.75-.86-9.42-1.75-13.7-4A45.19,45.19,0,0,1,4,146.84C0,138.62-.72,130,.6,121.4A41,41,0,0,1,14.88,95.77a65.63,65.63,0,0,1,12.62-8,1.76,1.76,0,0,1,.72-.16c1.25-.1,2.9-.08,2.87-1.65,0-1.32-1.74-1.29-2.79-1.6-4.95-1.47-9-4.41-12.8-7.72-5.06-4.43-9.43-9.54-11.9-15.91-1.55-4-3-8-3.28-12.38C0,41.44.17,34.53,2.85,28A45.72,45.72,0,0,1,14.33,11.32,1.61,1.61,0,0,1,15.74,11c-.11.39-.11.9-.36,1.14A43.22,43.22,0,0,0,2.22,35.43C-.12,46.38,2,56.32,7.66,65.58A40.29,40.29,0,0,0,36.5,85c.78.13,1.61.27,1.5,1.27s-1,1-1.75,1c-5.23.17-9.76,2.45-14.13,4.94-12.19,7-18.57,18-20.68,31.44A38.41,38.41,0,0,0,6.33,148.6c5.23,9.29,12.64,16.1,23,19.63a45.45,45.45,0,0,0,24.16,1.27c9.35-1.87,16.76-7,22.88-14A39.23,39.23,0,0,0,83.92,142c.91-2.71.91-5.73,2.62-8.2a2.37,2.37,0,0,1,1,1.92c.51,5.64,2.81,10.6,5.69,15.37,6.36,10.52,16,16.67,27.67,19a41.79,41.79,0,0,0,18.94-.6,42,42,0,0,0,31.44-45.38c-1.25-11.91-6.74-21.36-16-28.68-8.51-6.74-18.53-9.3-29.18-9.45-12.32-.18-24.65-.1-37,0-2.33,0-2.91-.71-2.9-3q.15-20.1,0-40.21a39.39,39.39,0,0,0-3-14.53A43.81,43.81,0,0,0,72.51,12.66,40.76,40.76,0,0,0,51.05,2a41.67,41.67,0,0,0-31.7,7C18.28,9.77,17.4,11.18,15.75,11ZM86.56,140.15l-.11-.15c0,.05-.13.09-.14.13s.07.1.11.15Z"/><path class="cls-1" d="M236.74,86.36V13.17c0-3.83.15-4,3.89-4h26c4.27,0,4.35.07,4.35,4.28V82.91q0,38.1,0,76.2c0,4.28,0,4.29-4.31,4.29H241.19c-4.45,0-4.45,0-4.45-4.34Z"/><path class="cls-1" d="M782,131.83v78.7c0,3.9-.24,4.14-4.09,4.15h-28c-3.65,0-4.07-.43-4.08-4q0-20.24,0-40.47a18.52,18.52,0,0,0-.26-3c-.21-1.32-.93-1.64-2.31-1.42-9.27,1.5-18.64,2.72-28,1.64-4.82-.56-9.75-1-14.54-2.51-6.7-2.08-13-4.64-18.39-9.2a48.31,48.31,0,0,1-13.63-18.26c-3.66-8.74-4.79-17.8-4.81-27.1q0-28.37,0-56.72c0-4.45,1-4.66,4.49-4.6,9.08.14,18.17,0,27.25,0,4,0,4.33.31,4.33,4.45,0,19.57-.11,39.15.1,58.71A32,32,0,0,0,704.52,129a12.85,12.85,0,0,0,4.94,4.49c5.11,2.79,10.62,3.17,16.37,2.89,4.46-.22,8.57-1.09,12-3.91a16.83,16.83,0,0,0,5.67-8.06c2.29-6.79,2.23-13.64,2.25-20.56,0-16.16-.09-32.31.1-48.47.1-7.68.39-6.16,6.1-6.21,8.83-.07,17.67,0,26.5,0,3.42,0,3.53.11,3.53,3.5v79.2Zm-1.36-.29h.07V53.85c0-3.45,0-3.45-3.49-3.45-8.92,0-17.83.08-26.74-.06-2.53,0-3.27.7-3.26,3.24.08,19.07,0,38.14,0,57.2a38.31,38.31,0,0,1-1.63,12.29c-1.75,5.23-4.47,9.71-9.67,12.28-5.44,2.7-11.25,2.94-17.06,2.36-5.16-.52-10-2.08-13.73-6.16-4.58-5.06-6.24-11.3-6.33-17.74-.27-20.15-.17-40.31-.1-60.46,0-2.44-.72-3.05-3.09-3-8.91.13-17.83,0-26.74.06-3.68,0-3.69,0-3.69,3.77,0,18,0,36,0,54a93.2,93.2,0,0,0,2,20.27c2.06,9.43,6.31,17.68,13.5,24.23,10.62,9.69,23.71,12.85,37.55,13.67A84.13,84.13,0,0,0,743.43,164c3.54-.88,3.75-.61,3.74,3.17q0,21.48,0,43c0,3,.19,3.21,3.3,3.22h25.74c4.2,0,4.38-.17,4.38-4.33Z"/><path class="cls-1" d="M542.87,86.05V13.39c0-.84,0-1.67,0-2.5.11-1.49.68-2.38,2.46-2.36,10.33.06,20.65,0,31,0,1.72,0,2.45.78,2.7,2.53a45.75,45.75,0,0,1,.37,6.71V158.11a17.89,17.89,0,0,1-.09,2.74c-.51,3.29-1.86,4.19-5.18,3.56a37.73,37.73,0,0,0-7-.19c-6.74-.05-13.49,0-20.23,0-3.6,0-4.06-.43-4.07-4,0-7.58,0-15.15,0-22.72Zm1.36.37v73.2c0,3.06.15,3.22,3.27,3.22h26c4.11,0,4.12,0,4.12-4.15q0-72.45,0-144.9c0-.66,0-1.33,0-2a2.06,2.06,0,0,0-2.44-2.17c-8.65.38-17.3.36-26,0-4.94-.21-4.95-.06-4.95,4.84Z"/><path class="cls-1" d="M596.59,130.94c-1.63-.47-2.08-2-2.91-3.23-2.39-3.46-5.29-6.63-7-10.47A28.78,28.78,0,0,1,584.53,101c.75-5.11,3.4-9.37,6-13.68,3.85-6.36,7.58-12.79,11.4-19.17,3.35-5.6,6.83-11.12,10.06-16.79a4,4,0,0,1,3.83-2.18q19.74,0,39.48,0a2.69,2.69,0,0,1,2.44,1c.64,1-.41,1.45-.83,2.1-3.77,5.91-7.38,11.93-11.37,17.69-3.86,5.58-7.68,11.18-11.32,16.9-.2.31-.68.43-1,.64l-.24-.24a8.36,8.36,0,0,1,1.33-2.65c7.1-10.74,14.15-21.5,21.25-32.24.9-1.36.71-1.94-1-1.94H615.34a2.1,2.1,0,0,0-2,1.14c-1.7,2.91-3.48,5.79-5.21,8.68Q600.69,72.58,593.31,85c-3.2,5.37-6.81,10.52-7.53,17a29.1,29.1,0,0,0,.81,11.34A33.22,33.22,0,0,0,593,124.7c1.47,1.82,3.31,3.54,3.86,6Z"/><path class="cls-1" d="M633.19,87.46c-.13,2.44-2.05,3.93-3.23,5.76-1.75,2.69-3.54,5.37-5.25,8.09-2.72,4.32-2.38,7.27.66,11.23q8,10.44,16.18,20.69c6.55,8.18,12.77,16.63,19.56,24.62a39.43,39.43,0,0,1,2.87,4c.7,1.06.58,1.89-.86,2.11a13.05,13.05,0,0,1-2,.22q-19,0-38,0c-3,0-4.53-1.19-5.57-4.29l.25-.24a3.53,3.53,0,0,1,1.81,1.65,3.31,3.31,0,0,0,3.15,1.55q18.74,0,37.46,0c.63,0,1.42.22,1.8-.52s-.17-1.39-.64-2q-8.51-10.82-17-21.64-10.61-13.45-21.22-26.89c-1.86-2.36-2.73-5.3-1.34-7.93a99.61,99.61,0,0,1,11.05-16.65Z"/><path class="cls-1" d="M617.62,159.9c-1.55-.51-2.26-2-3-3.17-2.08-3.42-4.8-6.37-7-9.71a3.82,3.82,0,0,1-.6-1.59l.25-.24c2.79,1.95,4.09,5.11,6.09,7.69,1.63,2.12,3.61,4.09,4.43,6.78Z"/><path class="cls-1" d="M607.1,145.43c-1.41-.31-1.78-1.7-2.49-2.63-2.7-3.55-5.22-7.24-7.79-10.9a2.56,2.56,0,0,1-.23-1l.25-.23c2.8,2.16,4.23,5.41,6.4,8.08a23.5,23.5,0,0,1,4.11,6.4Z"/><path class="cls-1" d="M15.75,11c1.65.19,2.53-1.22,3.6-2a41.67,41.67,0,0,1,31.7-7A40.76,40.76,0,0,1,72.51,12.66,43.81,43.81,0,0,1,83.24,28.25a39.39,39.39,0,0,1,3,14.53q.14,20.1,0,40.21c0,2.25.57,3,2.9,3,12.33-.1,24.66-.18,37,0,10.65.15,20.67,2.71,29.18,9.45,9.24,7.32,14.73,16.77,16,28.68a42,42,0,0,1-31.44,45.38,41.79,41.79,0,0,1-18.94.6c-11.7-2.34-21.31-8.49-27.67-19-2.88-4.77-5.18-9.73-5.69-15.37a2.37,2.37,0,0,0-1-1.92c-1.71,2.47-1.71,5.49-2.62,8.2a39.23,39.23,0,0,1-7.52,13.51c-6.12,7-13.53,12.16-22.88,14a45.45,45.45,0,0,1-24.16-1.27c-10.39-3.53-17.8-10.34-23-19.63a38.41,38.41,0,0,1-4.89-24.95c2.11-13.43,8.49-24.49,20.68-31.44,4.37-2.49,8.9-4.77,14.13-4.94.75,0,1.64,0,1.75-1s-.72-1.14-1.5-1.27A40.29,40.29,0,0,1,7.66,65.58C2,56.32-.12,46.38,2.22,35.43A43.22,43.22,0,0,1,15.38,12.14c.25-.24.25-.75.36-1.14Z"/><path class="cls-3" d="M86.56,140.15l-.14.13c0-.05-.11-.1-.11-.15s.09-.08.14-.13Z"/><path class="cls-1" d="M780.6,131.54V209c0,4.16-.18,4.33-4.38,4.33H750.48c-3.11,0-3.3-.21-3.3-3.22q0-21.48,0-43c0-3.78-.2-4.05-3.74-3.17a84.13,84.13,0,0,1-25.22,2.35c-13.84-.82-26.93-4-37.55-13.67-7.19-6.55-11.44-14.8-13.5-24.23a93.2,93.2,0,0,1-2-20.27c.05-18,0-36,0-54,0-3.77,0-3.77,3.69-3.77,8.91,0,17.83.07,26.74-.06,2.37,0,3.1.57,3.09,3-.07,20.15-.17,40.31.1,60.46.09,6.44,1.75,12.68,6.33,17.74,3.7,4.08,8.57,5.64,13.73,6.16,5.81.58,11.62.34,17.06-2.36,5.2-2.57,7.92-7,9.67-12.28a38.31,38.31,0,0,0,1.63-12.29c0-19.06.06-38.13,0-57.2,0-2.54.73-3.28,3.26-3.24,8.91.14,17.82,0,26.74.06,3.48,0,3.49,0,3.49,3.45v77.69Z"/><path class="cls-1" d="M544.23,86.42V14.47c0-4.9,0-5.05,4.95-4.84,8.65.36,17.3.38,26,0a2.06,2.06,0,0,1,2.44,2.17c0,.66,0,1.33,0,2q0,72.45,0,144.9c0,4.15,0,4.15-4.12,4.15h-26c-3.12,0-3.27-.16-3.27-3.22Z"/><path class="cls-1" d="M607.35,145.19a23.5,23.5,0,0,0-4.11-6.4c-2.17-2.67-3.6-5.92-6.4-8.08-.55-2.47-2.39-4.19-3.86-6a33.22,33.22,0,0,1-6.39-11.36,29.1,29.1,0,0,1-.81-11.34c.72-6.51,4.33-11.66,7.53-17q7.37-12.39,14.79-24.76c1.73-2.89,3.51-5.77,5.21-8.68a2.1,2.1,0,0,1,2-1.14h39.22c1.68,0,1.87.58,1,1.94-7.1,10.74-14.15,21.5-21.25,32.24A8.36,8.36,0,0,0,633,87.22a99.05,99.05,0,0,0-11.06,16.65c-1.39,2.63-.52,5.57,1.34,7.93q10.57,13.47,21.22,26.89,8.52,10.8,17,21.64c.47.6,1,1.18.64,2s-1.17.52-1.8.52q-18.72,0-37.46,0a3.31,3.31,0,0,1-3.15-1.55,3.53,3.53,0,0,0-1.81-1.65c-.82-2.69-2.8-4.66-4.43-6.78C611.44,150.3,610.14,147.14,607.35,145.19Z"/></g></g></svg>